<svg xmlns="http://www.w3.org/2000/svg" version="1.1" xmlns:xlink="http://www.w3.org/1999/xlink" xmlns:svgjs="http://svgjs.dev/svgjs" width="1000" height="1000" viewBox="0 0 1000 1000"><rect width="1000" height="1000" fill="#0a1627"></rect><g transform="matrix(0.7,0,0,0.7,149.55537234577616,201.34203116591544)"><svg viewBox="0 0 289 247" data-background-color="#0a1627" preserveAspectRatio="xMidYMid meet" height="854" width="1000" xmlns="http://www.w3.org/2000/svg" xmlns:xlink="http://www.w3.org/1999/xlink"><g id="tight-bounds" transform="matrix(1,0,0,1,0.18356770295812908,-0.09999899393082501)"><svg viewBox="0 0 288.63286019154685 247.2" height="247.2" width="288.63286019154685"><g><svg viewBox="0 0 395.52 338.74363416249525" height="247.2" width="288.63286019154685"><g><svg viewBox="0 0 395.52 338.74363416249525" height="338.74363416249525" width="395.52"><g><svg viewBox="0 0 395.52 338.74363416249525" height="338.74363416249525" width="395.52"><g><svg viewBox="0 0 395.52 226.6035982532751" height="226.6035982532751" width="395.52"><g transform="matrix(1,0,0,1,0,0)"><svg width="395.52" viewBox="1.399999976158142 -32.79999923706055 57.25 32.79999923706055" height="226.6035982532751" data-palette-color="#fe0039"><path d="M15.5 0L11.3 0 11.3-29.3 1.4-29.3 1.4-32.8 25.4-32.8 25.4-29.3 15.5-29.3 15.5 0ZM35.05 0L31.3 0 31.3-32.8 36.3-32.8 42.6-15.3Q43.2-13.6 43.77-11.88 44.35-10.15 44.95-8.45L44.95-8.45 45.15-8.45Q45.75-10.15 46.27-11.88 46.8-13.6 47.4-15.3L47.4-15.3 53.6-32.8 58.65-32.8 58.65 0 54.75 0 54.75-18.05Q54.75-20.25 54.95-22.9 55.15-25.55 55.3-27.75L55.3-27.75 55.1-27.75 52.5-20.3 46.3-3.3 43.55-3.3 37.35-20.3 34.75-27.75 34.55-27.75Q34.7-25.55 34.87-22.9 35.05-20.25 35.05-18.05L35.05-18.05 35.05 0Z" opacity="1" transform="matrix(1,0,0,1,0,0)" fill="#fe0039" class="undefined-text-0" data-fill-palette-color="primary" id="text-0"></path></svg></g></svg></g><g transform="matrix(1,0,0,1,0,280.09926931451525)"><svg viewBox="0 0 395.52 58.64436484798" height="58.64436484798" width="395.52"><g transform="matrix(1,0,0,1,0,0)"><svg width="395.52" viewBox="1 -35 240.08999633789062 35.599998474121094" height="58.64436484798" data-palette-color="#c1c1c1"><path d="M27.3-25.1L31.95-25.1 31.95-19.55 26.3-19.55 25-13.4 30.3-13.4 30.3-7.95 23.6-7.95 21.75 0.55 15.9 0.55 17.75-7.95 12-7.95 10.2 0.55 4.2 0.55 6-7.95 1-7.95 1-13.4 7.3-13.4 8.7-19.55 3.3-19.55 3.3-25.1 9.8-25.1 12-35 18.1-35 15.85-25.1 21.4-25.1 23.6-35 29.6-35 27.3-25.1ZM14.6-19.5L13.25-13.35 18.95-13.35 20.4-19.5 14.6-19.5ZM77.2 0L66.25 0 66.25-12.4Q66.25-14.7 66.42-17.13 66.6-19.55 66.8-21.2 67-22.85 67.05-23.3L67.05-23.3 66.85-23.3 60.5 0 51.85 0 45.45-23.25 45.25-23.25Q45.3-22.8 45.52-21.18 45.75-19.55 45.95-17.13 46.15-14.7 46.15-12.4L46.15-12.4 46.15 0 36 0 36-34.4 51.6-34.4 56.8-14.55 57-14.55 62.15-34.4 77.2-34.4 77.2 0ZM96.25-27Q102.3-27 106.1-24.98 109.9-22.95 109.9-18.4L109.9-18.4 109.9-8.1Q109.9-7.25 110.3-6.7 110.7-6.15 111.5-6.15L111.5-6.15 113.3-6.15 113.3-0.4Q113.15-0.3 112.52-0.08 111.9 0.15 110.75 0.38 109.6 0.6 108.1 0.6L108.1 0.6Q105.2 0.6 103.32-0.28 101.45-1.15 100.75-2.7L100.75-2.7Q98.85-1.2 96.5-0.3 94.15 0.6 91 0.6L91 0.6Q81.7 0.6 81.7-6.8L81.7-6.8Q81.7-10.65 83.77-12.68 85.85-14.7 89.75-15.45 93.65-16.2 99.95-16.2L99.95-16.2 99.95-17.5Q99.95-19.05 98.87-19.85 97.8-20.65 96.1-20.65L96.1-20.65Q94.55-20.65 93.42-20.1 92.3-19.55 92.3-18.35L92.3-18.35 92.3-18.15 82.5-18.15Q82.45-18.4 82.45-18.85L82.45-18.85Q82.45-22.6 86.02-24.8 89.6-27 96.25-27L96.25-27ZM99.95-11.5Q95.7-11.5 93.67-10.58 91.65-9.65 91.65-8.1L91.65-8.1Q91.65-5.6 95.05-5.6L95.05-5.6Q97-5.6 98.47-6.65 99.95-7.7 99.95-9.25L99.95-9.25 99.95-11.5ZM129.09-27Q134.39-27 138.07-24.93 141.74-22.85 141.74-18.5L141.74-18.5 132.49-18.5Q132.49-19.95 131.19-20.55L131.19-20.55Q130.29-21.05 128.94-21.05L128.94-21.05Q125.34-21.05 125.34-19.35L125.34-19.35Q125.34-18.4 126.59-18 127.84-17.6 130.69-17.15L130.69-17.15Q134.19-16.65 136.54-15.98 138.89-15.3 140.64-13.58 142.39-11.85 142.39-8.75L142.39-8.75Q142.39-3.7 138.62-1.55 134.84 0.6 128.74 0.6L128.74 0.6Q125.24 0.6 122.14-0.38 119.04-1.35 117.09-3.4 115.14-5.45 115.14-8.6L115.14-8.6 124.39-8.6 124.39-8.4Q124.44-6.7 125.82-6.03 127.19-5.35 128.74-5.35L128.74-5.35Q132.89-5.35 132.89-7.3L132.89-7.3Q132.89-8.3 131.59-8.75 130.29-9.2 127.34-9.7L127.34-9.7Q123.79-10.3 121.52-11 119.24-11.7 117.54-13.38 115.84-15.05 115.84-18.05L115.84-18.05Q115.84-22.9 119.52-24.95 123.19-27 129.09-27L129.09-27ZM160.14-27Q166.19-27 169.99-24.98 173.79-22.95 173.79-18.4L173.79-18.4 173.79-8.1Q173.79-7.25 174.19-6.7 174.59-6.15 175.39-6.15L175.39-6.15 177.19-6.15 177.19-0.4Q177.04-0.3 176.42-0.08 175.79 0.15 174.64 0.38 173.49 0.6 171.99 0.6L171.99 0.6Q169.09 0.6 167.22-0.28 165.34-1.15 164.64-2.7L164.64-2.7Q162.74-1.2 160.39-0.3 158.04 0.6 154.89 0.6L154.89 0.6Q145.59 0.6 145.59-6.8L145.59-6.8Q145.59-10.65 147.67-12.68 149.74-14.7 153.64-15.45 157.54-16.2 163.84-16.2L163.84-16.2 163.84-17.5Q163.84-19.05 162.77-19.85 161.69-20.65 159.99-20.65L159.99-20.65Q158.44-20.65 157.32-20.1 156.19-19.55 156.19-18.35L156.19-18.35 156.19-18.15 146.39-18.15Q146.34-18.4 146.34-18.85L146.34-18.85Q146.34-22.6 149.92-24.8 153.49-27 160.14-27L160.14-27ZM163.84-11.5Q159.59-11.5 157.57-10.58 155.54-9.65 155.54-8.1L155.54-8.1Q155.54-5.6 158.94-5.6L158.94-5.6Q160.89-5.6 162.37-6.65 163.84-7.7 163.84-9.25L163.84-9.25 163.84-11.5ZM192.99-27Q198.29-27 201.96-24.93 205.64-22.85 205.64-18.5L205.64-18.5 196.39-18.5Q196.39-19.95 195.09-20.55L195.09-20.55Q194.19-21.05 192.84-21.05L192.84-21.05Q189.24-21.05 189.24-19.35L189.24-19.35Q189.24-18.4 190.49-18 191.74-17.6 194.59-17.15L194.59-17.15Q198.09-16.65 200.44-15.98 202.79-15.3 204.54-13.58 206.29-11.85 206.29-8.75L206.29-8.75Q206.29-3.7 202.51-1.55 198.74 0.6 192.64 0.6L192.64 0.6Q189.14 0.6 186.04-0.38 182.94-1.35 180.99-3.4 179.04-5.45 179.04-8.6L179.04-8.6 188.29-8.6 188.29-8.4Q188.34-6.7 189.71-6.03 191.09-5.35 192.64-5.35L192.64-5.35Q196.79-5.35 196.79-7.3L196.79-7.3Q196.79-8.3 195.49-8.75 194.19-9.2 191.24-9.7L191.24-9.7Q187.69-10.3 185.41-11 183.14-11.7 181.44-13.38 179.74-15.05 179.74-18.05L179.74-18.05Q179.74-22.9 183.41-24.95 187.09-27 192.99-27L192.99-27ZM224.04-27Q230.09-27 233.89-24.98 237.69-22.95 237.69-18.4L237.69-18.4 237.69-8.1Q237.69-7.25 238.09-6.7 238.49-6.15 239.29-6.15L239.29-6.15 241.09-6.15 241.09-0.4Q240.94-0.3 240.31-0.08 239.69 0.15 238.54 0.38 237.39 0.6 235.89 0.6L235.89 0.6Q232.99 0.6 231.11-0.28 229.24-1.15 228.54-2.7L228.54-2.7Q226.64-1.2 224.29-0.3 221.94 0.6 218.79 0.6L218.79 0.6Q209.49 0.6 209.49-6.8L209.49-6.8Q209.49-10.65 211.56-12.68 213.64-14.7 217.54-15.45 221.44-16.2 227.74-16.2L227.74-16.2 227.74-17.5Q227.74-19.05 226.66-19.85 225.59-20.65 223.89-20.65L223.89-20.65Q222.34-20.65 221.21-20.1 220.09-19.55 220.09-18.35L220.09-18.35 220.09-18.15 210.29-18.15Q210.24-18.4 210.24-18.85L210.24-18.85Q210.24-22.6 213.81-24.8 217.39-27 224.04-27L224.04-27ZM227.74-11.5Q223.49-11.5 221.46-10.58 219.44-9.65 219.44-8.1L219.44-8.1Q219.44-5.6 222.84-5.6L222.84-5.6Q224.79-5.6 226.26-6.65 227.74-7.7 227.74-9.25L227.74-9.25 227.74-11.5Z" opacity="1" transform="matrix(1,0,0,1,0,0)" fill="#c1c1c1" class="undefined-text-1" data-fill-palette-color="secondary" id="text-1"></path></svg></g></svg></g></svg></g></svg></g><g></g></svg></g><defs></defs></svg><rect width="288.63286019154685" height="247.2" fill="none" stroke="none" visibility="hidden"></rect></g></svg></g></svg>